<svg display="block" height="1376" preserveAspectRatio="none" viewBox="0 0 1143 2048" width="768" xmlns="http://www.w3.org/2000/svg"><path d="m0 0h1143v2048h-1143z" fill="#fff"/><path d="m590.963 433.448c11.173 1.479 21.933 5.197 31.637 10.93 13.894 8.033 41.505 31.263 55.004 42.029l97.383 77.582c-.054-7.417-.012-15.338-.153-22.796-.427-33.329-5.294-70.587 40.58-70.949 29.701-.235 59.704-.447 89.488.271 12.739-1.142 32.392 12.737 33.031 26.595 2.912 63.169.59 134.266 1.393 196.993 6.843 6.274 22.192 17.604 30.063 23.903l65.421 52.249c21.25 16.796 44.13 30.648 52.72 57.653 7.83 24.622 3.72 49.044-11.86 69.613-12.32 16-30.49 26.443-50.51 29.024-38.898 5.028-58.141-16.69-86.177-38.536.167 4.215.266 8.433.298 12.652l-.066 194.239.044 55.58c.065 40.52 1.168 69.71-29.846 100.81-12.489 12.6-28.079 21.69-45.2 26.35-21.999 5.81-61.548 4.16-85.93 4.16l-97.783-.04-89.573-.14-.161-112.07c96.504-19.88 180.093-91.77 180.447-196.544.149-44.196-13.045-87.482-44.158-119.72-37.664-39.028-107.532-55.896-149.763-14.379-28.806 26.823-26.432 66.673-25.097 102.862 1.114 30.218-14.409 56.601-48.347 54.494-77.945-4.839-107.824-92.499-87.749-158.407 19.632-64.454 75.239-105.775 139.577-118.39 40.547-6.869 35.344-12.262 35.299-50.638l-.086-54.908z" fill="#f58224"/><path d="m550.96 433.31.469.391c1.585 4.712.714 56.562.712 64.656l.026 182.114c-48.032 8.576-92.213 31.866-126.432 66.648-35.408 36.256-54.898 85.134-54.154 135.806.882 54.172 25.061 108.883 73.924 135.665 18.542 10.16 40.468 16.74 61.715 16.26 18.124-.22 35.722-6.11 50.335-16.83 61.982-45.701 12.019-116.179 45.925-150.832 9.33-9.535 21.987-13.693 35.152-13.647 23.403.083 45.928 11.227 62.178 27.719 23.045 23.386 32.547 58.641 32.21 90.783-.773 73.617-54.482 130.647-122.34 152.567-12.047 3.89-47.243 8.25-54.333 15.88-2.927 3.15-3.715 10.98-4.08 15.13-1.219 13.85-.281 28.44-.274 42.38l.05 81.14-.278 1.14c-2.222 1.67-6.69 1.31-9.692 1.32l-160.184-.01c-22.833.02-80.127 1.47-98.991-2.85-18.464-4.39-35.326-13.87-48.665-27.38-31.689-31.64-30.41-61.1-30.422-102.33l-.023-56.22-.004-204.584c-18.124 14.55-36.732 32.41-59.518 37.298-20.278 4.182-41.386.175-58.7201-11.148-16.8-11.147-28.497-28.499-32.5289-48.253-3.9401-19.938.3443-40.621 11.8801-57.353 9.4261-13.864 38.6559-34.795 53.3119-46.432l68.867-54.475 177.02-140.608 99.036-79.057c26.523-21.116 53.962-48.648 87.828-54.888z" fill="#1b9595"/><path d="m243.541 1432.35c69.078-1.08 72.188 112.14 6.824 119.8-15.815 1.86-27.447-4.89-38.83-14.69l.297 24.96c.127 7.84 1.419 19.64-3.676 25.84-1.997 2.46-4.925 3.98-8.085 4.2-12.349.85-14.974-9.67-14.939-19.6.053-40.05-.007-79.78.017-119.85.006-8.99 2.021-18.89 13.982-19.7 7.241-.5 9.668 10.63 12.932 14.02 10.089-10.82 16.875-13.21 31.478-14.98z" fill="#1b9595"/><path d="m235.624 1457.12c43.165-2.82 48.563 57 12.491 70.49-44.018 3.6-50.627-58.81-12.491-70.49z" fill="#fff"/><path d="m708.314 1433.25c32.649-4.49 62.693 18.5 66.899 51.19 4.205 32.68-19.04 62.53-51.761 66.46-32.327 3.88-61.738-19.03-65.893-51.32-4.155-32.3 18.499-61.9 50.755-66.33z" fill="#f58224"/><path d="m711.532 1456.1c43.583-1.88 49.638 61 9.319 71.52-41.728 2.4-50.972-58.57-9.319-71.52z" fill="#fff"/><path d="m923.529 1432.31c53.78-3.1 35.301 72.55 38.479 105.43 1.097 11.35-16.624 15.09-21.333 9.68-16.454-18.92 11.885-90.11-24.468-91.77-43.459 1.9-14.733 67.51-29.083 90.63-2.624 4.91-16.006 4.42-18.484-.18-6.616-12.27-3.777-45.85-3.676-59.67-.014-5.88.26-12.04-2.095-17.55-2.333-5.46-6.447-9.91-12.04-12.07-4.948-1.92-10.311-1.84-15.118.46-27.425 13.12-7.943 60.84-16.413 84-1.246 3.41-3.477 6.55-6.965 7.93-3.386 1.33-8.059.65-11.293-.98-2.536-1.28-4.964-3.5-5.835-6.29-2.337-7.49-2.171-96.44.883-101.34 1.658-2.66 4.658-4.66 7.644-5.5 3.691-1.04 8.42-.7 11.713 1.45 4.285 2.79 5.079 8.28 5.832 12.9 19.043-22.84 52.973-24.6 66.833 4.14.504-.71 1.028-1.42 1.572-2.1 10.067-12.86 17.857-17.23 33.847-19.17z" fill="#f58224"/><path d="m525.008 1396.98c18.067-.06 18.02 12.63 17.742 26.99-.231 11.91-.354 23.87-.308 35.78 21.368-.64 44.408-.36 65.934-.47.169-13.76-1.749-42.3 1.61-54 3.15-10.97 26.215-14.09 26.109 10.22-.175 40.52.556 81.93-.11 122.53-.121 7.42-4.971 9.89-10.987 11.74-24.119-.01-15.235-29.32-16.794-45.52-.527-5.48.101-13.63.145-19.24l-65.933.03c.067 17.97.509 36.73-.516 54.63-.797 13.92-26.92 13.49-26.903-2.69.043-43.3-1.344-87.07.636-130.25.204-4.45 6.062-7.86 9.375-9.75z" fill="#f58224"/><path d="m104.606 1395.38c14.203-1.58 71.262 8.88 51.786 35.89-8.563 11.87-32.099-13.71-45.175-11.31-6.868 1.26-18.4594.02-25.1022 7.3-2.8194 2.53-4.5909 8.19-4.3947 11.79 1.4137 25.93 55.4079 17.2 72.0529 37.36 7.969 7.93 10.251 15.5 10.61 26.83 1.127 35.62-27.363 48.57-58.667 48.77-15.7021-1.31-28.3925-3.53-41.7571-12.97-7.3011-5.16-16.447-15.87-8.7326-24.77 11.6163-13.4 25.9572 5.83 37.1648 9.94 7.1338 2.97 13.5599 3.03 21.2159 2.39 11.227-.93 25.805-7.74 23.821-21.35-2.155-13.82-17.013-17.61-28.559-19.86-22.6601-4.41-49.8358-10.33-53.4248-37.71-2.4388-18.6 4.6263-34.6 21.0099-44.28 9.153-5.41 17.8677-6.88 28.1519-8.02z" fill="#1b9595"/><path d="m1033.15 1432.34c29.56-4.46 55.63 23.52 58.31 51.16 1.9 19.5-16.4 16.86-29.5 16.86-18.15-.01-35.99-.28-54 .06 2.81 8.03 5.62 14.07 11.98 19.9 20.39 18.7 43.29-1.75 54.85-1.98l.95-.01c34.16 19.83-38.99 50.04-71.14 22.24-41.284-35.7-23.677-101.54 28.55-108.23z" fill="#f58224"/><path d="m1030.21 1456.13c20.11-1.15 27.27 4.25 33.69 22.98h-22.15l-33.25-.06c4.96-13.44 8.12-17.95 21.71-22.92z" fill="#fff"/><g fill="#1b9595"><path d="m447.106 1407.03c18.975-.52 16.276 13.88 16.254 28.02 7.422-.11 37.896-3.5 24.676 20.96-2.472 4.57-18.866 3.35-24.832 3.19.352 16.97.125 35.6-.138 52.55-.404 26.08 21.58 4.41 29.557 19.93.286 4.9-2.924 9.78-5.956 13.38-11.447 7.28-31.588 7.26-41.546-2.76-11.102-11.18-8.305-29.82-8.445-44.36-.121-12.73.087-25.62.129-38.35-10.82.34-30.33-2.7-18.028-20.5 3.086-4.47 12.193-4.08 17.773-4.04-.205-13.55-2.854-21.14 10.556-28.02z"/><path d="m328.027 1389.15c10.857-1.08 17.529 1.14 17.733 13.49.69 42.28.231 84.62.339 126.91.028 10.95.672 14.01-9.049 20.28-12.503.4-17.147-2.94-17.403-16.02-.717-39.99-.309-80.06-.32-120.06-.003-12.07-1.611-17.33 8.7-24.6z"/><path d="m384.138 1433.94c15.36.27 16.101 9.29 15.817 22.07-.636 28.65 1.65 58.17-1.272 86.6-.354 3.44-6.953 6.41-9.74 7.54-15.33-.53-16.335-9.98-15.991-22.68.772-28.43-1.845-57.96 1.422-86.11.358-3.08 7.305-6.34 9.764-7.42z"/><path d="m379.65 1393.13c8.772-.48 15.344-1.29 20.448 7.18 4.383 7.28.51 16.39-6.398 20.36-10.599.98-25.451-.78-22.623-17.57.795-4.71 4.283-7.81 8.573-9.97z"/></g></svg>