<svg display="block" height="749" preserveAspectRatio="none" viewBox="0 0 2048 2048" width="749" xmlns="http://www.w3.org/2000/svg"><path d="m1054.18 265.736c54.77.359 114.47 59.474 156.67 92.832 60.32 47.68 122.49 95.59 181.53 144.851.73-13.495-.73-29.689-.17-43.883 1.54-25.351-3.35-57.424 3.58-81.901 5.4-19.055 24.1-37.609 43.47-41.534 28.88-5.85 57.38-4.032 86.59-4.195 31.36-.175 62.36.105 93.68.225 24.04-.32 42.17 3.901 59.35 21.608 21.96 22.644 18.56 54.012 18.5 82.987l-.05 67.176c.47 80.383.21 160.769-.79 241.147 31.68 22.644 59.78 45.956 90.02 70.414l84.07 67.391c15.5 12.51 31.96 24.562 47.34 37.29 7.1 6.266 16.73 12.188 22.74 19.468 40.74 49.385 48.24 113.388 13.85 168.858-43.1 69.5-141.9 86.68-206.17 35.64-15.74-12.51-33.84-28.02-50.74-38.48l-.32 495.38c-.07 50.5-.37 85.01-27 130.62-22.85 42.17-71.16 77.43-118.4 87.29-48.43 10.1-110.81 6.31-160.83 6.15l-175.66.13c-20.19.04-152.4 2.56-159.99-2.3-2.9-11.85-1.43-51.29-1.61-65.73-.57-45.99 1.11-93.22-.42-139.17 14.42-3.75 29.1-6.03 43.59-10.36 54.85-16.41 106.01-42.7 151.08-78.03 12.36-9.69 23.1-21.2 34.23-32.22 121.08-112.73 140.04-311.96 36.93-442.89-60.31-78.706-192.59-121.358-275.9-53.58-26.29 21.39-51.731 59.9-55.517 94.38-3.13 28.51-.208 59.66-1.24 88.62-1.242 34.86.887 73.34-29.851 97.18-55.612 44.21-145.81 5.3-185.157-42.6-39.801-48.44-55.295-125.85-47.305-187.01 17.021-140.351 134.502-235.92 267.483-261.401 16.407-3.143 36.577-3.217 49.637-14.389 4.23-3.613 10.57-10.24 11.82-16.118 1.44-12.87.79-26.479.77-39.468l-.07-75.04-.05-252.843-.09-80.12c-.02-13.854-.56-32.933.4-46.375z" fill="#f58224"/><path d="m981.523 265.196 2.258.194c2.686 4.175 2.1 85.907 2.096 96.365l-.035 144.734.019 124.32c-.011 28.09.495 60.011-1.589 87.899-14.025 4.824-34.228 8.403-49.821 13.386-62.3 19.911-117.247 50.135-165.402 94.948-67.699 63.002-110.503 144.172-115.242 237.258-4.238 83.24 17.055 165.94 74.264 228.18 42.262 44.75 95.839 73.71 157.775 77.67 59.322 3.79 108.987-21.02 144.064-68.38 39.04-53.44 21.51-125.92 26.03-186.27 8.52-113.84 155.06-85.61 207.79-22.22 40.42 48.6 56.26 114.78 53.07 175.73-6.97 132.95-111.23 235.17-234.72 269.86-23.97 6.73-46.94 10-71.36 14.37-8.81 1.58-22.676 15.6-24.164 24.94-4.221 26.5.059 55.04-.938 81.94-.24 32.29.304 64.5-1.164 96.81-.559 16.01.729 33.24.188 50.32-.393 5.05-.382 11.69-.506 16.89-14.403-.67-32.496-.19-47.105-.18l-86.588.01-306.514-.01c-59.332-.53-102.827-14.25-145.431-56.84-58.532-58.51-55.693-119.85-55.722-195.59l.006-112.08-.072-355.93c-34.247 27.64-64.133 57.73-107.944 66.44-38.013 7.48-77.444-.28-109.789-21.6-30.4111-20.53-51.3984-52.32-58.325-88.35-7.2896-36.89.6876-73.554 21.6593-104.623 17.2497-25.555 54.0717-51.592 79.0757-71.063l57.288-45.109 119.91-95.168 328.756-260.979 157.677-126.161c27.184-21.736 54.735-44.167 82.66-64.953 17.758-13.219 46.309-22.475 67.845-26.758z" fill="#1c9595"/></svg>